<svg xmlns="http://www.w3.org/2000/svg" viewBox="0 -0.5 32 16" shape-rendering="crispEdges">
<metadata>Made with Pixels to Svg https://codepen.io/shshaw/pen/XbxvNj</metadata>
<path stroke="#cd9691" d="M0 0h1M21 7h1M31 11h1" />
<path stroke="#ce9690" d="M1 0h1M9 7h1M10 8h1M11 9h1" />
<path stroke="#ce968e" d="M2 0h2M1 11h1" />
<path stroke="#8f5a53" d="M4 0h1M16 5h1" />
<path stroke="#8f5a52" d="M5 0h1M16 4h1" />
<path stroke="#8f5b50" d="M6 0h1" />
<path stroke="#f0bdb0" d="M7 0h1" />
<path stroke="#f0bfb0" d="M8 0h1" />
<path stroke="#efbfac" d="M9 0h1" />
<path stroke="#cc9a82" d="M10 0h1" />
<path stroke="#cd9a7f" d="M11 0h1" />
<path stroke="#cc9a7f" d="M12 0h1" />
<path stroke="#cc9a81" d="M13 0h1" />
<path stroke="#cd9984" d="M14 0h1" />
<path stroke="#ce9886" d="M15 0h1M14 7h1" />
<path stroke="#ce9885" d="M16 0h1" />
<path stroke="#ce9883" d="M17 0h1" />
<path stroke="#ce9980" d="M18 0h1" />
<path stroke="#cd9885" d="M19 0h1" />
<path stroke="#cd9690" d="M20 0h1" />
<path stroke="#cd9596" d="M21 0h5M27 0h1M25 9h1M12 10h1M3 12h1" />
<path stroke="#cd9597" d="M26 0h1" />
<path stroke="#cd9692" d="M28 0h1M5 8h1M13 9h2" />
<path stroke="#ce9691" d="M29 0h2M1 12h1" />
<path stroke="#cf9591" d="M31 0h1" />
<path stroke="#905a4e" d="M0 1h1" />
<path stroke="#cd988a" d="M1 1h1M18 3h1M15 8h1" />
<path stroke="#ce9888" d="M2 1h1" />
<path stroke="#cd9887" d="M3 1h1M17 9h1" />
<path stroke="#cc9889" d="M4 1h1M20 2h1" />
<path stroke="#f1bdae" d="M5 1h1M12 5h1" />
<path stroke="#f2beaf" d="M6 1h1" />
<path stroke="#8f5c4a" d="M7 1h1" />
<path stroke="#8d5d48" d="M8 1h1" />
<path stroke="#8d5d45" d="M9 1h1" />
<path stroke="#f1bfa4" d="M10 1h1M9 5h1" />
<path stroke="#f2bfa3" d="M11 1h1" />
<path stroke="#f0bea1" d="M12 1h1" />
<path stroke="#f1bfa3" d="M13 1h1M0 2h1" />
<path stroke="#f1bfa5" d="M14 1h1M6 2h1M22 5h1" />
<path stroke="#cd9982" d="M15 1h1" />
<path stroke="#cd9983" d="M16 1h1M15 7h1" />
<path stroke="#f2bea8" d="M17 1h1" />
<path stroke="#f2bea7" d="M18 1h1" />
<path stroke="#f3beac" d="M19 1h1" />
<path stroke="#905a51" d="M20 1h1M22 1h1" />
<path stroke="#8f5852" d="M21 1h1" />
<path stroke="#8f5a50" d="M23 1h3M27 1h1" />
<path stroke="#8f5a51" d="M26 1h1M15 4h1" />
<path stroke="#8f5b4e" d="M28 1h1" />
<path stroke="#cd9889" d="M29 1h1M1 8h1" />
<path stroke="#ce9789" d="M30 1h1M10 6h1M3 8h1" />
<path stroke="#915a4c" d="M31 1h1" />
<path stroke="#f1bfa2" d="M1 2h1" />
<path stroke="#f1c09f" d="M2 2h1M10 2h1M12 2h1M30 2h1M7 3h1" />
<path stroke="#f1c09e" d="M3 2h1M13 2h1" />
<path stroke="#f0c19f" d="M4 2h1M15 2h1M29 2h1M5 4h1M27 5h1" />
<path stroke="#f0c0a1" d="M5 2h1M25 2h1M13 3h2M8 5h1M23 5h1M31 7h1" />
<path stroke="#cc9a80" d="M7 2h1" />
<path stroke="#f0c1a0" d="M8 2h1" />
<path stroke="#f0c19e" d="M9 2h1M0 7h1" />
<path stroke="#f1c0a0" d="M11 2h1" />
<path stroke="#efc09c" d="M14 2h1" />
<path stroke="#f1c1a4" d="M16 2h1M15 3h1" />
<path stroke="#f1bfa7" d="M17 2h1" />
<path stroke="#f2bdab" d="M18 2h1M14 6h1" />
<path stroke="#905b4b" d="M19 2h1" />
<path stroke="#f1beaa" d="M21 2h1M15 6h2" />
<path stroke="#f0c0a3" d="M22 2h1" />
<path stroke="#f0c09f" d="M23 2h1M10 3h1" />
<path stroke="#f0c0a0" d="M24 2h1M27 2h1M1 7h1" />
<path stroke="#f1c1a2" d="M26 2h1" />
<path stroke="#efc1a0" d="M28 2h1M7 5h1" />
<path stroke="#f2c09f" d="M31 2h1" />
<path stroke="#f0c19c" d="M0 3h1M5 3h1M6 4h1" />
<path stroke="#cb9c76" d="M1 3h1" />
<path stroke="#f0c299" d="M2 3h1M0 4h1" />
<path stroke="#efc197" d="M3 3h1" />
<path stroke="#f0c29a" d="M4 3h1M3 4h1" />
<path stroke="#cc9b7a" d="M6 3h1" />
<path stroke="#f0c19b" d="M8 3h1M22 3h1M7 4h1M29 5h1" />
<path stroke="#f0c29b" d="M9 3h1M8 4h1" />
<path stroke="#cc9b7c" d="M11 3h2" />
<path stroke="#f0bfa7" d="M16 3h1M31 8h1" />
<path stroke="#8e5b48" d="M17 3h1" />
<path stroke="#cd978a" d="M19 3h1" />
<path stroke="#8f5b4a" d="M20 3h1" />
<path stroke="#f1bfa6" d="M21 3h1M16 7h1" />
<path stroke="#efc397" d="M23 3h1" />
<path stroke="#efc297" d="M24 3h1M23 4h2M0 5h1" />
<path stroke="#eec197" d="M25 3h1M25 4h1" />
<path stroke="#efc298" d="M26 3h2M26 4h4M1 5h1" />
<path stroke="#efc398" d="M28 3h2" />
<path stroke="#f0c298" d="M30 3h2M2 4h1M31 4h1" />
<path stroke="#efc198" d="M1 4h1" />
<path stroke="#efc19f" d="M4 4h1" />
<path stroke="#cb9c79" d="M9 4h1" />
<path stroke="#cb9a7f" d="M10 4h1" />
<path stroke="#8f5d46" d="M11 4h1" />
<path stroke="#8e5d47" d="M12 4h1" />
<path stroke="#8e5c4a" d="M13 4h1" />
<path stroke="#8f5c4f" d="M14 4h1" />
<path stroke="#ce9890" d="M17 4h1" />
<path stroke="#ce978d" d="M18 4h1" />
<path stroke="#ce978b" d="M19 4h1M12 6h1M18 10h2" />
<path stroke="#8f594c" d="M20 4h1" />
<path stroke="#f2bfaa" d="M21 4h1" />
<path stroke="#f0c19d" d="M22 4h1M28 5h1" />
<path stroke="#f1c399" d="M30 4h1" />
<path stroke="#efc29a" d="M2 5h1" />
<path stroke="#efc19e" d="M3 5h1M2 6h1" />
<path stroke="#8e5e43" d="M4 5h1" />
<path stroke="#efbfa6" d="M5 5h1" />
<path stroke="#efc1a1" d="M6 5h1M26 5h1" />
<path stroke="#f1bea9" d="M10 5h1M17 8h1" />
<path stroke="#f0bcab" d="M11 5h1" />
<path stroke="#f1bdb1" d="M13 5h1" />
<path stroke="#f1bcb4" d="M14 5h1" />
<path stroke="#8e5952" d="M15 5h1" />
<path stroke="#cd9790" d="M17 5h1" />
<path stroke="#cc968f" d="M18 5h1" />
<path stroke="#cd978f" d="M19 5h1M20 6h1" />
<path stroke="#cd978d" d="M20 5h1" />
<path stroke="#cd9888" d="M21 5h1" />
<path stroke="#efc1a3" d="M24 5h1" />
<path stroke="#efc1a2" d="M25 5h1" />
<path stroke="#f1c39b" d="M30 5h1" />
<path stroke="#efc299" d="M31 5h1M1 6h1" />
<path stroke="#efc396" d="M0 6h1" />
<path stroke="#f0c0a5" d="M3 6h1" />
<path stroke="#cb9988" d="M4 6h1" />
<path stroke="#8e5b4f" d="M5 6h1" />
<path stroke="#eebfaf" d="M6 6h1" />
<path stroke="#efbfae" d="M7 6h1" />
<path stroke="#cc9887" d="M8 6h1" />
<path stroke="#ce9887" d="M9 6h1" />
<path stroke="#ce978a" d="M11 6h1M13 7h1M31 10h1" />
<path stroke="#ce988a" d="M13 6h1" />
<path stroke="#8d5c4d" d="M17 6h1" />
<path stroke="#5c2b27" d="M18 6h1M19 7h1" />
<path stroke="#ca9795" d="M19 6h1" />
<path stroke="#ce978c" d="M21 6h1M4 8h1" />
<path stroke="#cd978e" d="M22 6h1" />
<path stroke="#cb9790" d="M23 6h1" />
<path stroke="#c99893" d="M24 6h1" />
<path stroke="#c89893" d="M25 6h1" />
<path stroke="#ca988f" d="M26 6h1" />
<path stroke="#cb998a" d="M27 6h1" />
<path stroke="#cc9983" d="M28 6h1" />
<path stroke="#cc9a7e" d="M29 6h1" />
<path stroke="#cb9c7a" d="M30 6h1" />
<path stroke="#efc19d" d="M31 6h1" />
<path stroke="#f0bfa5" d="M2 7h1" />
<path stroke="#8f5c48" d="M3 7h1" />
<path stroke="#cd998d" d="M4 7h1" />
<path stroke="#cb9791" d="M5 7h1M20 7h1" />
<path stroke="#5c2a28" d="M6 7h1" />
<path stroke="#8c5a58" d="M7 7h1" />
<path stroke="#cc9692" d="M8 7h1" />
<path stroke="#ce968d" d="M10 7h1M2 9h3M0 10h2M0 11h1" />
<path stroke="#cf968c" d="M11 7h1" />
<path stroke="#ce968c" d="M12 7h1M11 8h1" />
<path stroke="#efbfab" d="M17 7h1" />
<path stroke="#eebdb5" d="M18 7h1" />
<path stroke="#905857" d="M22 7h1" />
<path stroke="#8f585b" d="M23 7h1M25 10h1M25 11h1" />
<path stroke="#5c292f" d="M24 7h2" />
<path stroke="#5e292a" d="M26 7h1" />
<path stroke="#cc9792" d="M27 7h1" />
<path stroke="#cc988c" d="M28 7h1" />
<path stroke="#f1beab" d="M29 7h1M18 8h1" />
<path stroke="#f0bfa4" d="M30 7h1" />
<path stroke="#8f5b4c" d="M0 8h1" />
<path stroke="#ce9989" d="M2 8h1" />
<path stroke="#8d5860" d="M6 8h1" />
<path stroke="#5b2733" d="M7 8h1" />
<path stroke="#8d5861" d="M8 8h1" />
<path stroke="#cb9698" d="M9 8h1M0 13h1M24 13h1" />
<path stroke="#cf978f" d="M12 8h1" />
<path stroke="#cf9790" d="M13 8h1" />
<path stroke="#ce988e" d="M14 8h1" />
<path stroke="#cd9985" d="M16 8h1" />
<path stroke="#f0beb0" d="M19 8h1" />
<path stroke="#5c2b26" d="M20 8h1" />
<path stroke="#ca9796" d="M21 8h1" />
<path stroke="#cd9694" d="M22 8h1M26 8h1" />
<path stroke="#915857" d="M23 8h1M2 12h1" />
<path stroke="#8f585a" d="M24 8h1" />
<path stroke="#cc9597" d="M25 8h1" />
<path stroke="#905955" d="M27 8h1M20 11h1" />
<path stroke="#5e2a25" d="M28 8h1" />
<path stroke="#efbdb3" d="M29 8h1" />
<path stroke="#f0beab" d="M30 8h1" />
<path stroke="#ce968f" d="M0 9h2M3 10h1M17 10h1" />
<path stroke="#cd9693" d="M5 9h1M22 9h1" />
<path stroke="#8e5762" d="M6 9h1M8 10h1" />
<path stroke="#8d5767" d="M7 9h1M8 12h1M10 12h2M14 12h1M6 13h1" />
<path stroke="#5d2735" d="M8 9h1" />
<path stroke="#8e5860" d="M9 9h1M21 13h1" />
<path stroke="#cd9594" d="M10 9h1" />
<path stroke="#905954" d="M12 9h1" />
<path stroke="#905953" d="M15 9h1" />
<path stroke="#cd978b" d="M16 9h1" />
<path stroke="#ce9884" d="M18 9h1" />
<path stroke="#cc9888" d="M19 9h1" />
<path stroke="#eebdb8" d="M20 9h1" />
<path stroke="#5c2929" d="M21 9h1" />
<path stroke="#ce9592" d="M23 9h1M23 10h1M22 11h1" />
<path stroke="#915858" d="M24 9h1" />
<path stroke="#cd9595" d="M26 9h1M13 10h1M15 10h1M21 12h1" />
<path stroke="#cc9696" d="M27 9h1" />
<path stroke="#c99798" d="M28 9h1" />
<path stroke="#8c5a57" d="M29 9h1" />
<path stroke="#8d5a4d" d="M30 9h1" />
<path stroke="#ce9a87" d="M31 9h1" />
<path stroke="#cf968f" d="M2 10h1" />
<path stroke="#cc958e" d="M4 10h1" />
<path stroke="#cc9693" d="M5 10h1" />
<path stroke="#8f575f" d="M6 10h1" />
<path stroke="#cc949f" d="M7 10h1M8 11h1" />
<path stroke="#8f5760" d="M9 10h1" />
<path stroke="#90575d" d="M10 10h1" />
<path stroke="#ce9598" d="M11 10h1" />
<path stroke="#8f5758" d="M14 10h1" />
<path stroke="#905956" d="M16 10h1M24 12h1" />
<path stroke="#f1bcb6" d="M20 10h1" />
<path stroke="#8f5956" d="M21 10h1" />
<path stroke="#915954" d="M22 10h1" />
<path stroke="#cf9696" d="M24 10h1M23 12h1" />
<path stroke="#ca959c" d="M26 10h1" />
<path stroke="#c9969e" d="M27 10h1" />
<path stroke="#c8969e" d="M28 10h1" />
<path stroke="#c99799" d="M29 10h1" />
<path stroke="#cc978f" d="M30 10h1" />
<path stroke="#ce9591" d="M2 11h1" />
<path stroke="#915955" d="M3 11h1" />
<path stroke="#ce9793" d="M4 11h1M19 11h1" />
<path stroke="#8f5958" d="M5 11h1" />
<path stroke="#90575e" d="M6 11h1" />
<path stroke="#8f5762" d="M7 11h1M10 11h1" />
<path stroke="#8e5763" d="M9 11h1M26 13h1" />
<path stroke="#8f5761" d="M11 11h1M6 12h1" />
<path stroke="#8e575e" d="M12 11h1" />
<path stroke="#8f585e" d="M13 11h1" />
<path stroke="#cc959b" d="M14 11h1" />
<path stroke="#8f585f" d="M15 11h1" />
<path stroke="#cb959c" d="M16 11h1M4 13h1M22 13h1" />
<path stroke="#8e585c" d="M17 11h1" />
<path stroke="#cc9695" d="M18 11h1" />
<path stroke="#cd9591" d="M21 11h1" />
<path stroke="#ce9593" d="M23 11h1" />
<path stroke="#ce9594" d="M24 11h1" />
<path stroke="#5e2933" d="M26 11h1" />
<path stroke="#5b2835" d="M27 11h1" />
<path stroke="#5a2935" d="M28 11h1" />
<path stroke="#5b2931" d="M29 11h1" />
<path stroke="#cb9695" d="M30 11h1" />
<path stroke="#925a53" d="M0 12h1" />
<path stroke="#905858" d="M4 12h1" />
<path stroke="#cd9598" d="M5 12h1" />
<path stroke="#8f5765" d="M7 12h1" />
<path stroke="#8d5768" d="M9 12h1" />
<path stroke="#5d2736" d="M12 12h1" />
<path stroke="#8d5766" d="M13 12h1M27 12h1" />
<path stroke="#8c5768" d="M15 12h1M27 13h1" />
<path stroke="#8a5869" d="M16 12h1M19 13h1M4 14h1" />
<path stroke="#895869" d="M17 12h1" />
<path stroke="#c895a2" d="M18 12h1M23 14h1" />
<path stroke="#5d2831" d="M19 12h1" />
<path stroke="#cc9598" d="M20 12h1" />
<path stroke="#905859" d="M22 12h1" />
<path stroke="#ce9697" d="M25 12h1" />
<path stroke="#8e5761" d="M26 12h1" />
<path stroke="#8c5867" d="M28 12h1" />
<path stroke="#8c5866" d="M29 12h1" />
<path stroke="#5c2832" d="M30 12h1" />
<path stroke="#5c2930" d="M31 12h1" />
<path stroke="#cb9699" d="M1 13h1" />
<path stroke="#cb959b" d="M2 13h1" />
<path stroke="#8e585f" d="M3 13h1" />
<path stroke="#8e5861" d="M5 13h1" />
<path stroke="#8c576a" d="M7 13h1" />
<path stroke="#5b273c" d="M8 13h1" />
<path stroke="#8a576d" d="M9 13h1M12 13h1" />
<path stroke="#5a283c" d="M10 13h1" />
<path stroke="#8b596d" d="M11 13h1" />
<path stroke="#8b576d" d="M13 13h1" />
<path stroke="#8b576c" d="M14 13h1M28 13h1" />
<path stroke="#5a273d" d="M15 13h1" />
<path stroke="#58283f" d="M16 13h1M4 15h1" />
<path stroke="#57273e" d="M17 13h1" />
<path stroke="#59283d" d="M18 13h1M29 13h1" />
<path stroke="#8c5863" d="M20 13h1" />
<path stroke="#8f585d" d="M23 13h1" />
<path stroke="#cb959a" d="M25 13h1" />
<path stroke="#c695a8" d="M30 13h1" />
<path stroke="#c696a8" d="M31 13h1" />
<path stroke="#592939" d="M0 14h1" />
<path stroke="#c595a4" d="M1 14h1" />
<path stroke="#8a5867" d="M2 14h1" />
<path stroke="#c895a5" d="M3 14h1M26 14h1" />
<path stroke="#89586c" d="M5 14h1" />
<path stroke="#885870" d="M6 14h1" />
<path stroke="#572842" d="M7 14h1" />
<path stroke="#875872" d="M8 14h1" />
<path stroke="#562842" d="M9 14h1M12 14h1" />
<path stroke="#865971" d="M10 14h1" />
<path stroke="#562941" d="M11 14h1" />
<path stroke="#885872" d="M13 14h1" />
<path stroke="#895770" d="M14 14h1M16 14h2" />
<path stroke="#8a576f" d="M15 14h1" />
<path stroke="#89576f" d="M18 14h1" />
<path stroke="#89586f" d="M19 14h1" />
<path stroke="#88586e" d="M20 14h1" />
<path stroke="#59283c" d="M21 14h1M2 15h2" />
<path stroke="#8a5868" d="M22 14h1" />
<path stroke="#8b5865" d="M24 14h1" />
<path stroke="#c996a4" d="M25 14h1" />
<path stroke="#89586d" d="M27 14h1" />
<path stroke="#562843" d="M28 14h1" />
<path stroke="#552846" d="M29 14h1" />
<path stroke="#542946" d="M30 14h1" />
<path stroke="#542945" d="M31 14h1" />
<path stroke="#562940" d="M0 15h1" />
<path stroke="#57283f" d="M1 15h1M27 15h1" />
<path stroke="#572841" d="M5 15h1" />
<path stroke="#562844" d="M6 15h1M20 15h1" />
<path stroke="#552845" d="M7 15h2" />
<path stroke="#552945" d="M9 15h1M12 15h1" />
<path stroke="#542944" d="M10 15h2" />
<path stroke="#572945" d="M13 15h1" />
<path stroke="#582741" d="M14 15h1M19 15h1" />
<path stroke="#592740" d="M15 15h1M17 15h2" />
<path stroke="#58263f" d="M16 15h1" />
<path stroke="#552741" d="M21 15h1" />
<path stroke="#58283c" d="M22 15h1" />
<path stroke="#592839" d="M23 15h1" />
<path stroke="#5a293b" d="M24 15h1" />
<path stroke="#59283b" d="M25 15h1" />
<path stroke="#58273a" d="M26 15h1" />
<path stroke="#542947" d="M28 15h1" />
<path stroke="#52294b" d="M29 15h3" />
</svg>