<?xml version="1.0" standalone="no"?>
<!DOCTYPE svg PUBLIC "-//W3C//DTD SVG 20010904//EN"
 "http://www.w3.org/TR/2001/REC-SVG-20010904/DTD/svg10.dtd">
<svg version="1.0" xmlns="http://www.w3.org/2000/svg"
 width="64.000000pt" height="100.000000pt" viewBox="0 0 64.000000 100.000000"
 preserveAspectRatio="xMidYMid meet">

<g transform="translate(0.000000,100.000000) scale(0.100000,-0.100000)"
fill="#000000" stroke="none">
<path d="M94 785 c17 -13 15 -35 -5 -35 -5 0 -18 -9 -29 -20 l-20 -20 20 0
c11 0 20 -6 20 -13 0 -16 52 -47 79 -47 12 0 21 -6 21 -15 0 -28 -88 -12 -100
19 -8 20 -9 20 -9 2 -1 -20 -1 -20 -15 0 -8 10 -18 16 -22 11 -4 -4 -2 -7 4
-7 19 0 14 -18 -5 -23 -14 -4 -12 -5 5 -6 12 -1 22 -7 22 -16 0 -17 -16 -20
-25 -5 -3 6 -14 9 -23 9 -14 -1 -14 -2 -1 -6 17 -4 54 -61 45 -70 -3 -3 -15 6
-28 19 -13 13 -17 16 -9 6 12 -16 12 -18 -2 -18 -10 0 -17 -5 -17 -11 0 -13
43 -72 84 -117 26 -27 28 -34 16 -42 -29 -19 -51 -11 -66 25 -7 19 -14 46 -14
60 0 15 -4 24 -10 20 -6 -3 -10 -43 -10 -88 0 -76 2 -83 23 -92 32 -14 33 -50
3 -80 -14 -14 -26 -35 -26 -46 0 -18 4 -20 32 -13 38 9 66 9 126 -1 36 -7 48
-4 73 14 24 18 38 21 77 16 26 -3 70 -1 97 4 l50 9 -44 1 c-43 1 -44 1 -26 21
11 12 31 20 50 20 39 0 49 -8 32 -29 -11 -14 -10 -14 6 -2 9 7 17 18 17 24 0
15 32 36 55 37 18 0 17 2 -7 18 -14 9 -41 28 -60 40 l-33 24 35 -30 c40 -35
36 -47 -15 -38 -28 6 -39 15 -52 41 -9 19 -24 37 -34 40 -14 5 -28 32 -29 58
0 14 38 7 66 -14 l29 -21 -28 26 c-34 32 -83 35 -92 7 -9 -29 -28 -17 -48 29
-9 22 -23 40 -31 40 -20 0 -37 -25 -30 -44 8 -22 -21 -32 -52 -18 -14 7 -24
20 -24 32 0 24 34 65 47 57 5 -3 8 6 5 21 -3 20 4 35 24 55 27 28 28 29 12 60
-9 18 -19 46 -23 62 -13 59 -31 75 -83 75 -42 -1 -45 -2 -28 -15z m94 -48 c2
-10 0 -17 -5 -16 -4 1 -14 1 -22 0 -11 -1 -11 -4 0 -17 12 -15 11 -16 -11 -11
-21 6 -20 4 5 -8 l30 -15 -30 2 c-22 2 -32 10 -39 29 -14 41 -2 61 36 57 22
-2 34 -9 36 -21z m42 -103 c0 -8 -4 -14 -10 -14 -5 0 -10 9 -10 21 0 11 5 17
10 14 6 -3 10 -13 10 -21z m-27 -31 c-3 -7 -14 -18 -25 -24 -24 -13 -61 -2
-54 17 4 10 -2 12 -24 7 -24 -4 -30 -2 -30 12 0 12 5 15 16 11 9 -3 33 -9 55
-12 31 -5 40 -3 45 11 5 12 9 13 14 4 5 -7 6 -18 3 -26z m67 -182 c-1 -6 -104
-71 -114 -71 -3 0 -6 8 -6 18 0 10 19 27 48 43 43 23 72 27 72 10z m60 -30
c-1 -52 -48 -79 -99 -58 l-33 14 42 36 c37 31 45 34 66 25 13 -6 24 -14 24
-17z m-235 -31 c-3 -5 -14 -10 -23 -9 -14 0 -13 2 3 9 27 11 27 11 20 0z m263
-15 c27 -59 1 -142 -36 -119 -9 6 -18 21 -20 33 -4 22 28 111 39 111 3 0 11
-11 17 -25z m-204 -10 c28 -43 13 -135 -23 -135 -12 0 -13 2 -3 8 9 6 4 16
-19 35 -27 22 -31 30 -25 58 5 28 29 58 47 59 4 0 14 -11 23 -25z m90 -21 c9
-8 16 -19 16 -24 0 -15 52 -72 74 -80 18 -7 18 -9 3 -9 -10 -1 -34 6 -55 15
-37 15 -37 15 -64 -15 -34 -38 -51 -40 -42 -6 6 25 10 63 13 113 1 26 32 30
55 6z"/>
</g>
</svg>
